<?xml version="1.0" encoding="UTF-8" standalone="no"?>
<!DOCTYPE svg PUBLIC "-//W3C//DTD SVG 1.1//EN" "http://www.w3.org/Graphics/SVG/1.1/DTD/svg11.dtd">
<svg width="100%" height="100%" viewBox="0 0 2921 846" version="1.1" xmlns="http://www.w3.org/2000/svg" xmlns:xlink="http://www.w3.org/1999/xlink" xml:space="preserve" xmlns:serif="http://www.serif.com/" style="fill-rule:evenodd;clip-rule:evenodd;stroke-linejoin:round;stroke-miterlimit:2;">
    <g transform="matrix(1,0,0,1,-1869,-5612)">
        <g id="FTC-Horizontal-Logo-White" serif:id="FTC Horizontal Logo White" transform="matrix(2.02826,0,0,0.586944,1869.13,5612.54)">
            <rect x="0" y="0" width="1440" height="1440" style="fill:none;"/>
            <clipPath id="_clip1">
                <rect x="0" y="0" width="1440" height="1440"/>
            </clipPath>
            <g clip-path="url(#_clip1)">
                <g transform="matrix(1.68837,0,0,1.70374,-172.025,-372.781)">
                    <g id="الشعار" transform="matrix(0.317116,0,0,1.08595,-626.788,-54.0752)">
                        <path d="M2683.44,891.144L2876.59,780.19L2972.45,835.259L2635.42,1029.63L2298.01,835.042L2298.01,445.867L2635.42,251.28L2971.89,445.328L2875.71,500.579L2683.44,390.13L2683.44,891.144ZM2393.17,688.478L2393.17,779.722L2588.83,892.122L2588.83,389.152L2393.17,501.552L2393.17,593.868L2449.95,593.868L2449.95,612.781L2468.88,612.781L2468.88,593.868L2506.74,593.868L2506.74,612.796L2487.81,612.796L2487.81,631.709L2506.74,631.709L2506.74,669.565L2487.81,669.565L2487.81,688.478L2468.88,688.478L2468.88,669.565L2449.95,669.565L2449.95,688.478L2393.17,688.478ZM2525.66,669.55L2506.74,669.55L2506.74,688.478L2525.66,688.478L2525.66,669.55ZM2563.52,669.55L2544.59,669.55L2544.59,688.478L2563.52,688.478L2563.52,669.55ZM2468.88,650.637L2468.88,669.55L2487.81,669.55L2487.81,650.637L2468.88,650.637ZM2544.59,631.709L2525.66,631.709L2525.66,650.637L2544.59,650.637L2544.59,631.709ZM2431.02,631.709L2431.02,650.637L2449.95,650.637L2449.95,631.709L2431.02,631.709ZM2525.66,612.781L2506.74,612.781L2506.74,631.709L2525.66,631.709L2525.66,612.781ZM2544.59,593.868L2525.66,593.868L2525.66,612.796L2544.59,612.796L2544.59,593.868Z" style="fill:white;"/>
                    </g>
                    <g id="Wordmark" transform="matrix(0.876018,0,0,0.876018,47.2421,79.5539)">
                        <g id="Arabic-Wordmark" serif:id="Arabic Wordmark" transform="matrix(0.292018,0,0,1,-868.752,-322.004)">
                            <path d="M6116.38,906.79L6135.34,906.79L6135.34,928.198L6116.38,928.198L6116.38,906.79ZM6146.26,906.79L6165,906.79L6165,928.198L6146.26,928.198L6146.26,906.79ZM6115.71,890.735C6105.01,890.735 6094.98,888.728 6085.61,884.714C6076.39,880.848 6068.96,875.125 6063.31,867.543C6057.66,860.109 6054.84,851.412 6054.84,841.452C6054.84,832.532 6056.77,816.625 6060.63,793.73L6080.48,796.852C6077.51,817.368 6076.02,830.897 6076.02,837.438C6076.02,844.128 6077.73,850.074 6081.15,855.278C6084.57,860.481 6089.18,864.495 6094.98,867.32C6100.92,870.293 6107.46,871.78 6114.6,871.78L6174.14,871.78C6184.1,871.78 6191.61,868.806 6196.66,862.86C6201.72,856.913 6204.24,848.662 6204.24,838.107C6204.24,830.674 6201.87,824.95 6197.11,820.936C6192.35,816.922 6184.03,813.577 6172.13,810.901C6160.09,808.076 6150.65,804.954 6143.81,801.535C6137.12,797.967 6132.22,793.433 6129.09,787.932C6125.97,782.431 6124.41,775.295 6124.41,766.524C6124.41,752.401 6128.65,741.771 6137.12,734.635C6145.74,727.499 6158.31,723.931 6174.81,723.931C6180.9,723.931 6187.45,724.303 6194.43,725.046C6201.42,725.789 6210.79,727.053 6222.53,728.837L6220.75,746.454C6199.19,743.927 6184.47,742.663 6176.59,742.663C6156.23,742.663 6146.04,750.096 6146.04,764.963C6146.04,770.464 6147.16,774.775 6149.39,777.897C6151.77,781.019 6155.41,783.546 6160.31,785.479C6165.22,787.412 6172.95,789.716 6183.51,792.392C6194.06,795.068 6202.31,798.19 6208.26,801.758C6214.35,805.326 6218.74,809.934 6221.41,815.584C6224.24,821.084 6225.65,828.072 6225.65,836.546C6225.65,853.642 6221.27,866.948 6212.49,876.462C6203.87,885.977 6191.53,890.734 6175.48,890.734L6115.71,890.735ZM4463.96,835.431L4438.1,835.431L4438.1,842.567C4438.1,852.379 4435.49,860.927 4430.29,868.212C4425.23,875.496 4418.25,881.071 4409.33,884.937C4400.56,888.802 4390.74,890.735 4379.89,890.735C4368.44,890.735 4358.11,888.579 4348.9,884.268C4339.68,880.105 4332.39,874.307 4327.04,866.874C4321.84,859.44 4319.24,851.115 4319.24,841.898C4319.24,831.64 4322.14,809.117 4327.93,774.329L4348,775.444C4345.77,789.567 4343.84,802.873 4342.2,815.361C4340.72,827.7 4339.98,835.951 4339.98,840.113C4339.98,846.06 4341.69,851.412 4345.1,856.169C4348.52,861.075 4353.21,864.866 4359.15,867.542C4365.25,870.367 4371.94,871.779 4379.22,871.779C4389.93,871.779 4398.85,868.88 4405.98,863.082C4413.27,857.433 4416.91,849.777 4416.91,840.113L4416.91,676.655L4438.1,676.655L4438.1,816.476L4463.96,816.476L4463.96,835.431ZM4553.39,853.271L4573.68,853.271L4573.68,875.125L4553.39,875.125L4553.39,853.271ZM5660.57,853.271L5679.31,853.271L5679.31,874.679L5660.57,874.679L5660.57,853.271ZM5630.69,853.271L5649.65,853.271L5649.65,874.679L5630.69,874.679L5630.69,853.271ZM6283.41,719.026C6294.11,719.026 6303.78,721.627 6312.4,726.83C6321.17,731.885 6328.16,740.062 6333.36,751.36C6338.56,762.659 6341.17,777.154 6341.17,794.845L6341.17,835.431L6247.95,835.431L6247.95,816.476L6320.2,816.476L6320.2,795.96C6320.2,774.849 6316.12,759.983 6307.94,751.36C6299.76,742.589 6290.17,738.203 6279.17,738.203L6259.77,738.203L6258.21,722.37C6260.44,721.627 6264.08,720.884 6269.14,720.14C6274.19,719.397 6278.95,719.026 6283.41,719.026L6283.41,719.026ZM4636.34,816.476C4632.92,808.002 4631.21,796.109 4631.21,780.796C4631.21,766.078 4633,754.705 4636.56,746.677C4640.13,738.501 4645.78,732.703 4653.51,729.283C4661.39,725.864 4672.32,724.154 4686.29,724.154C4697.89,724.154 4708.37,724.675 4717.74,725.716L4725.54,726.607L4725.54,816.476L4745.83,816.476L4745.83,835.431L4463.96,835.431L4463.96,816.476L4552.94,816.476L4552.94,723.931L4574.12,723.931L4574.12,816.476L4636.34,816.476ZM5266.09,816.476L5266.09,676.656L5287.28,676.656L5287.28,835.431L5229.96,835.431C5227.29,835.431 5224.46,834.613 5221.49,832.978C5218.52,831.194 5215.99,828.964 5213.91,826.288L5213.91,835.431L4961.7,835.431C4952.48,835.431 4944.23,832.458 4936.94,826.511C4931.44,832.458 4924.23,835.431 4915.31,835.431L4745.83,835.431L4745.83,816.476L4779.06,816.476L4779.06,723.931L4800.24,723.931L4800.24,816.476L4868.93,816.476L4868.93,735.081L4890.11,735.081L4890.11,816.476L4908.4,816.476C4914.94,816.476 4919.7,813.726 4922.67,808.225C4925.79,802.724 4927.35,795.811 4927.35,787.486L4927.35,735.081L4948.54,735.081L4948.54,787.263C4948.54,795.737 4947.57,803.319 4945.64,810.009C4947.72,811.644 4950.25,813.131 4953.22,814.469C4956.2,815.808 4959.17,816.477 4962.14,816.477L4983.55,816.477L4983.55,773.438C4983.55,763.032 4982.36,746.753 4979.98,724.602L4997.82,723.931C4999.61,732.703 5001.17,741.92 5002.51,751.583C5003.99,761.098 5004.73,768.383 5004.73,773.437L5004.73,816.476L5116.9,816.476C5114.82,804.285 5113.78,792.318 5113.78,780.573C5113.78,771.207 5114.45,761.767 5115.79,752.252C5117.13,742.589 5118.61,734.561 5120.25,728.168C5124.26,726.533 5129.76,725.046 5136.75,723.708C5143.89,722.37 5151.54,721.7 5159.72,721.7C5179.05,721.7 5192.87,726.235 5201.2,735.303C5209.67,744.372 5213.91,759.164 5213.91,779.68L5213.91,807.332C5215.54,810.008 5217.7,812.238 5220.38,814.022C5223.2,815.657 5226.4,816.475 5229.96,816.475L5238.66,816.476L5266.09,816.476ZM5326.08,676.656L5347.26,676.656L5347.26,835.431L5326.08,835.431L5326.08,676.656ZM5480.17,835.431C5466.49,835.431 5455.71,833.647 5447.83,830.079C5439.95,826.511 5434.23,820.639 5430.66,812.462C5427.09,804.285 5425.31,792.987 5425.31,778.566C5425.31,764.443 5427.02,753.293 5430.44,745.116C5433.86,736.791 5439.43,730.844 5447.16,727.276C5454.9,723.56 5465.52,721.701 5479.05,721.701C5485.59,721.701 5494.59,721.998 5506.04,722.593C5517.48,723.187 5525.81,723.782 5531.01,724.377L5531.01,816.476L5644.74,816.476L5644.74,723.931L5665.93,723.931L5665.93,816.476L5732.38,816.476L5732.38,723.931L5753.56,723.931L5753.56,816.476L5815.78,816.476C5812.36,808.002 5810.65,796.109 5810.65,780.796C5810.65,766.078 5812.44,754.705 5816,746.677C5819.57,738.501 5825.22,732.703 5832.95,729.283C5840.83,725.864 5851.76,724.154 5865.73,724.154C5877.33,724.154 5887.81,724.675 5897.18,725.716L5904.98,726.607L5904.98,816.476L5925.27,816.476L5958.5,816.476L5958.5,723.931L5979.69,723.931L5979.69,835.431L5480.17,835.431ZM6522.91,723.931L6522.91,835.431L6468.5,835.431L6468.5,816.476L6501.73,816.476L6501.73,723.931L6522.91,723.931ZM6370.38,835.431L6370.38,676.656L6391.56,676.656L6391.56,816.476L6468.5,816.476L6468.5,835.431L6370.38,835.431ZM5446.49,778.343C5446.49,788.006 5447.61,795.588 5449.84,801.089C5452.22,806.59 5456.01,810.529 5461.21,812.908C5466.42,815.287 5473.55,816.476 5482.62,816.476L5510.05,816.476L5510.05,742.217C5498.16,741.325 5488.72,740.879 5481.73,740.879C5472.96,740.879 5465.97,742.143 5460.77,744.67C5455.71,747.049 5452.07,750.989 5449.84,756.489C5447.61,761.841 5446.49,769.126 5446.49,778.343ZM5831.84,782.357C5831.84,792.02 5832.51,799.379 5833.84,804.434C5835.18,809.34 5836.89,813.354 5838.97,816.476L5883.8,816.476L5883.8,743.555C5874.58,742.812 5868.11,742.441 5864.39,742.441C5855.47,742.441 5848.71,743.704 5844.1,746.232C5839.49,748.759 5836.3,752.847 5834.51,758.497C5832.73,764.146 5831.84,772.1 5831.84,782.357L5831.84,782.357ZM5134.74,780.573C5134.74,787.263 5135.04,793.953 5135.64,800.643C5136.38,807.184 5137.12,812.462 5137.86,816.476L5192.72,816.476L5192.72,779.235C5192.72,765.558 5189.82,755.746 5184.03,749.799C5178.38,743.704 5169.31,740.656 5156.82,740.656C5150.43,740.656 5144.18,741.325 5138.09,742.662C5135.86,756.34 5134.74,768.976 5134.74,780.572L5134.74,780.573ZM4652.4,782.357C4652.4,792.02 4653.07,799.379 4654.4,804.434C4655.74,809.34 4657.45,813.354 4659.53,816.476L4704.36,816.476L4704.36,743.555C4695.14,742.812 4688.67,742.441 4684.95,742.441C4676.03,742.441 4669.27,743.704 4664.66,746.232C4660.05,748.759 4656.86,752.847 4655.07,758.497C4653.29,764.146 4652.4,772.1 4652.4,782.357ZM4652.4,782.357L4652.4,782.357L4652.4,782.357ZM4765.23,681.562L4784.19,681.562L4784.19,703.192L4765.23,703.192L4765.23,681.562ZM5835.4,681.562L5854.36,681.562L5854.36,703.192L5835.4,703.192L5835.4,681.562ZM5865.29,681.562L5884.02,681.562L5884.02,703.192L5865.29,703.192L5865.29,681.562ZM5732.82,681.339L5753.12,681.339L5753.12,703.192L5732.82,703.192L5732.82,681.339ZM4795.12,681.562L4813.85,681.562L4813.85,703.192L4795.12,703.192L4795.12,681.562ZM4685.85,681.562L4704.58,681.562L4704.58,703.192L4685.85,703.192L4685.85,681.562ZM4655.97,681.562L4674.92,681.562L4674.92,703.192L4655.97,703.192L4655.97,681.562ZM5974.78,681.562L5993.51,681.562L5993.51,703.192L5974.78,703.192L5974.78,681.562ZM5459.88,681.562L5478.83,681.562L5478.83,703.192L5459.88,703.192L5459.88,681.562ZM6502.39,681.339L6522.69,681.339L6522.69,703.192L6502.39,703.192L6502.39,681.339ZM5944.9,681.562L5963.85,681.562L5963.85,703.192L5944.9,703.192L5944.9,681.562ZM5489.76,681.562L5508.49,681.562L5508.49,703.192L5489.76,703.192L5489.76,681.562Z" style="fill:white;fill-rule:nonzero;"/>
                        </g>
                        <g id="English-Wordmark" serif:id="English Wordmark" transform="matrix(0.768162,0,0,2.63053,-1309.99,-2558.51)">
                            <path d="M2814.9,1325.48C2808.6,1325.48 2803.99,1324.54 2801.1,1322.68C2798.2,1320.82 2796.76,1317.71 2796.76,1313.35C2796.76,1310.88 2797.23,1308.92 2798.18,1307.46C2799.12,1306 2800.86,1304.29 2803.38,1302.34C2802.46,1301.71 2801.79,1300.88 2801.36,1299.85C2800.93,1298.81 2800.71,1297.72 2800.71,1296.58C2800.71,1295.77 2800.9,1294.93 2801.27,1294.04C2801.64,1293.15 2802.49,1291.59 2803.81,1289.35C2799.45,1287.06 2797.27,1282.79 2797.27,1276.54C2797.27,1266.56 2802.86,1261.57 2814.04,1261.57C2816.68,1261.57 2819.61,1261.94 2822.82,1262.69L2835.89,1262.35L2835.89,1268.97L2828.24,1268.71C2829.15,1269.74 2829.81,1270.88 2830.21,1272.11C2830.61,1273.34 2830.82,1274.93 2830.82,1276.88C2830.82,1281.98 2829.45,1285.64 2826.73,1287.85C2824.01,1290.06 2819.75,1291.16 2813.96,1291.16C2812.24,1291.16 2810.83,1291.04 2809.74,1290.81C2808.83,1292.99 2808.37,1294.57 2808.37,1295.55C2808.37,1296.92 2808.93,1297.81 2810.04,1298.21C2811.16,1298.61 2812.9,1298.81 2815.25,1298.81L2818.26,1298.81C2822.27,1298.87 2825.48,1299.19 2827.89,1299.76C2830.3,1300.33 2832.16,1301.49 2833.48,1303.24C2834.8,1304.99 2835.46,1307.53 2835.46,1310.85C2835.46,1315.9 2833.84,1319.6 2830.6,1321.95C2827.36,1324.3 2822.13,1325.48 2814.9,1325.48ZM2858.08,1305.44L2851.11,1305.44L2839.42,1262.43L2847.41,1262.43L2857.22,1298.56L2859.8,1298.56L2869.69,1262.43L2877.69,1262.43L2860.66,1324.19L2852.75,1324.19L2858.08,1305.44ZM2815.59,1318.85C2819.89,1318.85 2822.92,1318.29 2824.66,1317.18C2826.41,1316.06 2827.29,1314.15 2827.29,1311.46C2827.29,1309.85 2826.96,1308.66 2826.3,1307.89C2825.64,1307.11 2824.65,1306.6 2823.33,1306.34C2822.01,1306.08 2820.06,1305.92 2817.48,1305.87L2808.71,1305.35C2807.16,1306.55 2806.1,1307.64 2805.53,1308.62C2804.95,1309.59 2804.67,1310.77 2804.67,1312.14C2804.67,1314.61 2805.5,1316.35 2807.16,1317.35C2808.83,1318.35 2811.64,1318.85 2815.59,1318.85ZM2925.86,1306.38C2919.72,1306.38 2915.02,1305.25 2911.75,1302.99C2908.48,1300.72 2906.23,1297.42 2905,1293.09C2903.76,1288.76 2903.15,1283.05 2903.15,1275.93C2903.15,1268.6 2903.78,1262.75 2905.04,1258.39C2906.3,1254.03 2908.52,1250.76 2911.71,1248.58C2914.89,1246.4 2919.4,1245.32 2925.25,1245.32C2930.01,1245.32 2935.52,1246 2941.77,1247.38L2941.51,1254.17C2936.06,1253.2 2931.19,1252.71 2926.89,1252.71C2922.59,1252.71 2919.35,1253.47 2917.17,1254.99C2914.99,1256.51 2913.53,1258.96 2912.78,1262.35C2912.04,1265.73 2911.69,1270.63 2911.75,1277.05C2911.75,1282.62 2912.11,1286.9 2912.83,1289.91C2913.54,1292.92 2915,1295.19 2917.21,1296.71C2919.42,1298.23 2922.79,1298.99 2927.32,1298.99C2931.1,1298.99 2935.83,1298.5 2941.51,1297.52L2941.77,1304.49C2935.46,1305.75 2930.16,1306.38 2925.86,1306.38ZM2571.84,1306.38C2567.6,1306.38 2564.2,1305.61 2561.65,1304.06C2559.1,1302.51 2557.26,1300.1 2556.14,1296.84C2555.03,1293.57 2554.47,1289.27 2554.47,1283.93C2554.47,1276.82 2555.72,1271.31 2558.21,1267.38C2560.7,1263.45 2565.22,1261.49 2571.76,1261.49C2573.42,1261.49 2575.2,1261.59 2577.09,1261.79C2578.98,1261.99 2581.53,1262.4 2584.74,1263.03L2584.49,1269.4C2579.61,1268.94 2576.17,1268.71 2574.16,1268.71C2571.12,1268.71 2568.77,1269.17 2567.11,1270.09C2565.45,1271 2564.29,1272.55 2563.63,1274.73C2562.97,1276.91 2562.64,1280.01 2562.64,1284.02C2562.64,1287.92 2562.97,1290.93 2563.63,1293.05C2564.29,1295.17 2565.45,1296.72 2567.11,1297.69C2568.77,1298.67 2571.21,1299.16 2574.42,1299.16L2584.57,1298.38L2584.83,1304.92C2579.1,1305.89 2574.77,1306.38 2571.84,1306.38ZM2704.21,1306.38C2697.5,1306.38 2692.68,1304.59 2689.76,1301.01C2686.84,1297.42 2685.37,1291.79 2685.37,1284.11C2685.37,1276.25 2686.86,1270.52 2689.85,1266.9C2692.83,1263.29 2697.62,1261.49 2704.21,1261.49C2710.86,1261.49 2715.66,1263.31 2718.62,1266.95C2721.57,1270.59 2723.05,1276.31 2723.05,1284.11C2723.05,1291.73 2721.58,1297.35 2718.66,1300.96C2715.74,1304.58 2710.92,1306.38 2704.21,1306.38ZM2770.09,1306.38C2763.38,1306.38 2758.57,1304.59 2755.64,1301.01C2752.72,1297.42 2751.26,1291.79 2751.26,1284.11C2751.26,1276.25 2752.75,1270.52 2755.73,1266.9C2758.71,1263.29 2763.5,1261.49 2770.09,1261.49C2776.74,1261.49 2781.55,1263.31 2784.5,1266.95C2787.45,1270.59 2788.93,1276.31 2788.93,1284.11C2788.93,1291.73 2787.47,1297.35 2784.54,1300.96C2781.62,1304.58 2776.8,1306.38 2770.09,1306.38ZM2272.87,1306.38C2269.15,1306.38 2266.28,1305.68 2264.27,1304.28C2262.27,1302.87 2260.86,1300.63 2260.06,1297.57C2259.26,1294.5 2258.86,1290.27 2258.86,1284.88L2258.86,1262.43L2266.85,1262.43L2266.85,1284.88C2266.85,1288.84 2267.05,1291.8 2267.45,1293.78C2267.86,1295.76 2268.62,1297.15 2269.74,1297.95C2270.85,1298.76 2272.56,1299.16 2274.85,1299.16C2276.74,1299.16 2278.54,1298.93 2280.23,1298.47C2281.92,1298.01 2283.74,1297.35 2285.69,1296.49L2285.69,1262.43L2293.69,1262.43L2293.69,1305.44L2285.69,1305.44L2285.69,1302.6C2283.28,1303.97 2281.12,1304.95 2279.2,1305.52C2277.28,1306.1 2275.17,1306.38 2272.87,1306.38ZM2529.1,1306.38C2522.5,1306.38 2517.8,1304.68 2514.99,1301.26C2512.18,1297.85 2510.78,1292.45 2510.78,1285.05C2510.78,1277.08 2512.28,1271.16 2515.29,1267.29C2518.3,1263.42 2522.96,1261.49 2529.27,1261.49C2540.96,1261.49 2546.81,1268.14 2546.81,1281.44L2546.3,1287.29L2518.86,1287.29C2518.92,1290.38 2519.32,1292.78 2520.06,1294.47C2520.81,1296.16 2522.01,1297.38 2523.68,1298.12C2525.34,1298.87 2527.69,1299.24 2530.73,1299.24C2532.51,1299.24 2534.51,1299.2 2536.75,1299.11C2538.99,1299.03 2540.99,1298.9 2542.77,1298.73L2545.18,1298.47L2545.35,1304.66C2538.64,1305.81 2533.22,1306.38 2529.1,1306.38ZM2319.49,1306.38C2316.45,1306.38 2314.09,1305.89 2312.39,1304.92C2310.7,1303.94 2309.49,1302.31 2308.74,1300.02C2307.99,1297.72 2307.62,1294.54 2307.62,1290.47L2307.62,1269.31L2301.86,1269.31L2301.86,1262.43L2307.62,1262.43L2307.62,1249.62L2315.62,1249.62L2315.62,1262.43L2328.26,1262.43L2328.26,1269.31L2315.62,1269.31L2315.62,1289.01C2315.62,1291.7 2315.72,1293.72 2315.92,1295.07C2316.12,1296.42 2316.6,1297.45 2317.34,1298.17C2318.09,1298.88 2319.29,1299.24 2320.95,1299.24L2328.26,1298.81L2328.78,1305.35C2324.77,1306.04 2321.67,1306.38 2319.49,1306.38ZM2349.68,1306.38C2345.95,1306.38 2343.09,1305.68 2341.08,1304.28C2339.07,1302.87 2337.67,1300.63 2336.87,1297.57C2336.06,1294.5 2335.66,1290.27 2335.66,1284.88L2335.66,1262.43L2343.66,1262.43L2343.66,1284.88C2343.66,1288.84 2343.86,1291.8 2344.26,1293.78C2344.66,1295.76 2345.42,1297.15 2346.54,1297.95C2347.66,1298.76 2349.37,1299.16 2351.66,1299.16C2353.55,1299.16 2355.34,1298.93 2357.03,1298.47C2358.72,1298.01 2360.55,1297.35 2362.5,1296.49L2362.5,1262.43L2370.49,1262.43L2370.49,1305.44L2362.5,1305.44L2362.5,1302.6C2360.09,1303.97 2357.92,1304.95 2356,1305.52C2354.08,1306.1 2351.97,1306.38 2349.68,1306.38ZM2428.55,1306.38C2421.96,1306.38 2417.26,1304.68 2414.45,1301.26C2411.64,1297.85 2410.23,1292.45 2410.23,1285.05C2410.23,1277.08 2411.74,1271.16 2414.75,1267.29C2417.76,1263.42 2422.41,1261.49 2428.72,1261.49C2440.42,1261.49 2446.27,1268.14 2446.27,1281.44L2445.75,1287.29L2418.32,1287.29C2418.37,1290.38 2418.77,1292.78 2419.52,1294.47C2420.26,1296.16 2421.47,1297.38 2423.13,1298.12C2424.8,1298.87 2427.15,1299.24 2430.18,1299.24C2431.96,1299.24 2433.97,1299.2 2436.2,1299.11C2438.44,1299.03 2440.45,1298.9 2442.23,1298.73L2444.63,1298.47L2444.81,1304.66C2438.1,1305.81 2432.68,1306.38 2428.55,1306.38ZM2985.63,1306.38C2981.9,1306.38 2979.04,1305.68 2977.03,1304.28C2975.02,1302.87 2973.62,1300.63 2972.82,1297.57C2972.01,1294.5 2971.61,1290.27 2971.61,1284.88L2971.61,1262.43L2979.61,1262.43L2979.61,1284.88C2979.61,1288.84 2979.81,1291.8 2980.21,1293.78C2980.61,1295.76 2981.37,1297.15 2982.49,1297.95C2983.61,1298.76 2985.32,1299.16 2987.61,1299.16C2989.5,1299.16 2991.29,1298.93 2992.99,1298.47C2994.68,1298.01 2996.5,1297.35 2998.45,1296.49L2998.45,1262.43L3006.45,1262.43L3006.45,1305.44L2998.45,1305.44L2998.45,1302.6C2996.04,1303.97 2993.87,1304.95 2991.95,1305.52C2990.03,1306.1 2987.93,1306.38 2985.63,1306.38ZM3033.45,1306.3C3029.55,1306.3 3025.4,1306.07 3020.98,1305.61L3018.32,1305.35L3018.32,1244.2L3026.31,1244.2L3026.31,1264.32C3028.49,1263.35 3030.51,1262.63 3032.38,1262.17C3034.24,1261.71 3036.26,1261.49 3038.44,1261.49C3042.22,1261.49 3045.25,1262.23 3047.51,1263.72C3049.78,1265.21 3051.44,1267.58 3052.5,1270.82C3053.56,1274.06 3054.1,1278.37 3054.1,1283.76C3054.1,1289.55 3053.45,1294.07 3052.16,1297.31C3050.87,1300.55 3048.75,1302.86 3045.8,1304.23C3042.84,1305.61 3038.73,1306.3 3033.45,1306.3ZM2224.62,1253.49L2224.62,1274.82L2247.93,1274.82L2247.93,1282.04L2224.62,1282.04L2224.62,1305.44L2216.37,1305.44L2216.37,1246.26L2252.49,1246.26L2252.49,1253.49L2224.62,1253.49ZM2733.37,1244.2L2741.37,1244.2L2741.37,1305.44L2733.37,1305.44L2733.37,1244.2ZM2951.66,1244.2L2959.66,1244.2L2959.66,1305.44L2951.66,1305.44L2951.66,1244.2ZM2594.12,1244.2L2602.12,1244.2L2602.12,1264.75C2604.58,1263.61 2606.82,1262.78 2608.83,1262.26C2610.83,1261.74 2612.9,1261.49 2615.02,1261.49C2618.69,1261.49 2621.55,1262.19 2623.62,1263.59C2625.68,1265 2627.14,1267.22 2628.01,1270.26C2628.87,1273.3 2629.3,1277.4 2629.3,1282.56L2629.3,1305.44L2621.3,1305.44L2621.3,1282.73C2621.3,1279 2621.07,1276.16 2620.61,1274.21C2620.15,1272.27 2619.3,1270.86 2618.07,1270C2616.84,1269.14 2615.05,1268.71 2612.7,1268.71C2609.77,1268.71 2606.73,1269.26 2603.58,1270.34L2602.12,1270.86L2602.12,1305.44L2594.12,1305.44L2594.12,1244.2ZM2382.36,1262.43L2390.28,1262.43L2390.28,1267.85C2395.38,1264.58 2400.43,1262.46 2405.41,1261.49L2405.41,1269.57C2403.18,1270.03 2400.86,1270.66 2398.45,1271.46C2396.04,1272.27 2394.03,1273.04 2392.43,1273.79L2390.36,1274.73L2390.36,1305.44L2382.36,1305.44L2382.36,1262.43ZM2640.74,1262.43L2648.65,1262.43L2648.65,1265.27C2651.11,1263.89 2653.35,1262.92 2655.36,1262.35C2657.36,1261.77 2659.49,1261.49 2661.72,1261.49C2665.33,1261.49 2668.17,1262.2 2670.24,1263.63C2672.3,1265.07 2673.76,1267.29 2674.62,1270.3C2675.48,1273.31 2675.91,1277.4 2675.91,1282.56L2675.91,1305.44L2667.91,1305.44L2667.91,1282.73C2667.91,1279.12 2667.7,1276.32 2667.27,1274.34C2666.84,1272.37 2666.04,1270.93 2664.86,1270.04C2663.68,1269.15 2661.98,1268.71 2659.74,1268.71C2656.7,1268.71 2653.52,1269.37 2650.2,1270.69L2648.73,1271.38L2648.73,1305.44L2640.74,1305.44L2640.74,1262.43ZM2487.38,1253.57L2469.92,1253.57L2469.92,1246.26L2512.93,1246.26L2512.93,1253.57L2495.64,1253.57L2495.64,1305.44L2487.38,1305.44L2487.38,1253.57ZM2770.09,1299.41C2772.85,1299.41 2774.98,1298.93 2776.5,1297.95C2778.02,1296.98 2779.1,1295.4 2779.73,1293.22C2780.36,1291.04 2780.67,1288.01 2780.67,1284.11C2780.67,1280.04 2780.34,1276.88 2779.68,1274.64C2779.02,1272.41 2777.93,1270.82 2776.41,1269.87C2774.89,1268.92 2772.79,1268.45 2770.09,1268.45C2767.4,1268.45 2765.28,1268.92 2763.73,1269.87C2762.18,1270.82 2761.08,1272.42 2760.42,1274.69C2759.76,1276.95 2759.43,1280.09 2759.43,1284.11C2759.43,1287.95 2759.74,1290.97 2760.37,1293.18C2761,1295.39 2762.09,1296.98 2763.64,1297.95C2765.19,1298.93 2767.34,1299.41 2770.09,1299.41ZM2704.21,1299.41C2706.96,1299.41 2709.1,1298.93 2710.62,1297.95C2712.14,1296.98 2713.21,1295.4 2713.84,1293.22C2714.47,1291.04 2714.79,1288.01 2714.79,1284.11C2714.79,1280.04 2714.46,1276.88 2713.8,1274.64C2713.14,1272.41 2712.05,1270.82 2710.53,1269.87C2709.01,1268.92 2706.91,1268.45 2704.21,1268.45C2701.51,1268.45 2699.39,1268.92 2697.85,1269.87C2696.3,1270.82 2695.19,1272.42 2694.53,1274.69C2693.87,1276.95 2693.54,1280.09 2693.54,1284.11C2693.54,1287.95 2693.86,1290.97 2694.49,1293.18C2695.12,1295.39 2696.21,1296.98 2697.76,1297.95C2699.31,1298.93 2701.46,1299.41 2704.21,1299.41ZM3033.71,1299.16C3036.98,1299.16 3039.49,1298.66 3041.24,1297.65C3042.99,1296.65 3044.2,1295.04 3044.89,1292.84C3045.58,1290.63 3045.92,1287.58 3045.92,1283.68C3045.92,1279.89 3045.62,1276.92 3045.02,1274.77C3044.42,1272.62 3043.44,1271.08 3042.1,1270.13C3040.75,1269.18 3038.9,1268.71 3036.55,1268.71C3033.68,1268.71 3030.27,1269.4 3026.31,1270.77L3026.31,1298.73C3030.04,1299.01 3032.51,1299.16 3033.71,1299.16ZM2814.13,1284.88C2817.23,1284.88 2819.45,1284.22 2820.8,1282.9C2822.14,1281.58 2822.82,1279.4 2822.82,1276.37C2822.82,1273.38 2822.13,1271.23 2820.75,1269.91C2819.38,1268.6 2817.17,1267.94 2814.13,1267.94C2811.03,1267.94 2808.78,1268.61 2807.38,1269.96C2805.97,1271.31 2805.27,1273.47 2805.27,1276.45C2805.27,1279.43 2805.97,1281.58 2807.38,1282.9C2808.78,1284.22 2811.03,1284.88 2814.13,1284.88ZM2438.27,1281.01C2438.27,1276.37 2437.54,1273.07 2436.08,1271.12C2434.61,1269.17 2432.16,1268.19 2428.72,1268.19C2425.11,1268.19 2422.47,1269.21 2420.81,1271.25C2419.15,1273.28 2418.29,1276.54 2418.23,1281.01L2438.27,1281.01ZM2538.81,1281.01C2538.81,1276.37 2538.08,1273.07 2536.62,1271.12C2535.16,1269.17 2532.71,1268.19 2529.27,1268.19C2525.66,1268.19 2523.02,1269.21 2521.35,1271.25C2519.69,1273.28 2518.83,1276.54 2518.77,1281.01L2538.81,1281.01Z" style="fill:white;fill-rule:nonzero;"/>
                        </g>
                    </g>
                </g>
            </g>
        </g>
    </g>
</svg>
